<svg xmlns="http://www.w3.org/2000/svg" class="graphdiagram" viewBox="-1297.4348765926172 -1368.841912482425 2377 1270"><g class="layer relationships"><g class="related-pair"><g class="relationship" transform="translate(-107,-737) rotate(180)"><path class="relationship" d="M 43.91105088252147 1 L 171.88076368555994 1 L 171.88076368555994 4 L 179.88076368555994 0 L 171.88076368555994 -4 L 171.88076368555994 -1 L 43.91105088252147 -1 Z" fill="rgba(0, 0, 0, 0.298039)" stroke="rgb(51, 51, 51)" stroke-width="0px"/><text class="type" text-anchor="middle" baseline-shift="30%" alignment-baseline="alphabetic" transform="rotate(180)" x="-107.8959072840407" y="0" font-size="14px" font-family="'Helvetica Neue', Helvetica, Arial, sans-serif">ABOUT</text></g></g><g class="related-pair"><g class="relationship" transform="translate(-336,-737) rotate(90)"><path class="relationship" d="M 49.119236314440066 1 L 174.14247171845665 1 L 174.14247171845665 4 L 182.14247171845665 0 L 174.14247171845665 -4 L 174.14247171845665 -1 L 49.119236314440066 -1 Z" fill="rgba(0, 0, 0, 0.298039)" stroke="rgb(51, 51, 51)" stroke-width="0px"/><text class="type" text-anchor="middle" baseline-shift="30%" alignment-baseline="alphabetic" x="111.63085401644835" y="0" font-size="14px" font-family="'Helvetica Neue', Helvetica, Arial, sans-serif">IN CATEGORY</text></g></g><g class="related-pair"><g class="relationship" transform="translate(-107,-737) rotate(-90)"><path class="relationship" d="M 43.91105088252147 1 L 156.25401637838917 1 L 156.25401637838917 4 L 164.25401637838917 0 L 156.25401637838917 -4 L 156.25401637838917 -1 L 43.91105088252147 -1 Z" fill="rgba(0, 0, 0, 0.298039)" stroke="rgb(51, 51, 51)" stroke-width="0px"/><text class="type" text-anchor="middle" baseline-shift="30%" alignment-baseline="alphabetic" x="100.08253363045532" y="0" font-size="14px" font-family="'Helvetica Neue', Helvetica, Arial, sans-serif">AGAINST</text></g></g><g class="related-pair"><g class="relationship" transform="translate(-107,-737) rotate(0)"><path class="relationship" d="M 43.91105088252147 1 L 182.22939478010073 1 L 182.22939478010073 4 L 190.22939478010073 0 L 182.22939478010073 -4 L 182.22939478010073 -1 L 43.91105088252147 -1 Z" fill="rgba(0, 0, 0, 0.298039)" stroke="rgb(51, 51, 51)" stroke-width="0px"/><text class="type" text-anchor="middle" baseline-shift="30%" alignment-baseline="alphabetic" x="113.0702228313111" y="0" font-size="14px" font-family="'Helvetica Neue', Helvetica, Arial, sans-serif">WITH</text></g></g><g class="related-pair"><g class="relationship" transform="translate(124.10406494140625,-737) rotate(90)"><path class="relationship" d="M 40.8746701613055 1 L 182.10968644455036 1 L 182.10968644455036 4 L 190.10968644455036 0 L 182.10968644455036 -4 L 182.10968644455036 -1 L 40.8746701613055 -1 Z" fill="rgba(0, 0, 0, 0.298039)" stroke="rgb(51, 51, 51)" stroke-width="0px"/><text class="type" text-anchor="middle" baseline-shift="30%" alignment-baseline="alphabetic" x="111.49217830292794" y="0" font-size="14px" font-family="'Helvetica Neue', Helvetica, Arial, sans-serif">IN CATEGORY</text></g></g><g class="related-pair"><g class="relationship" transform="translate(124.10406494140625,-943.3959350585938) rotate(138.23238705675146)"><path class="relationship" d="M 43.14541818779943 1 L 257.9411249064392 1 L 257.9411249064392 4 L 265.9411249064392 0 L 257.9411249064392 -4 L 257.9411249064392 -1 L 43.14541818779943 -1 Z" fill="rgba(0, 0, 0, 0.298039)" stroke="rgb(51, 51, 51)" stroke-width="0px"/><text class="type" text-anchor="middle" baseline-shift="30%" alignment-baseline="alphabetic" transform="rotate(180)" x="-150.5432715471193" y="0" font-size="14px" font-family="'Helvetica Neue', Helvetica, Arial, sans-serif">TO</text></g></g><g class="related-pair"><g class="relationship" transform="translate(-107,-737) rotate(136.2787113070498)"><path class="relationship" d="M 43.91105088252147 1 L 272.0052180298525 1 L 272.0052180298525 4 L 280.0052180298525 0 L 272.0052180298525 -4 L 272.0052180298525 -1 L 43.91105088252147 -1 Z" fill="rgba(0, 0, 0, 0.298039)" stroke="rgb(51, 51, 51)" stroke-width="0px"/><text class="type" text-anchor="middle" baseline-shift="30%" alignment-baseline="alphabetic" transform="rotate(180)" x="-157.95813445618697" y="0" font-size="14px" font-family="'Helvetica Neue', Helvetica, Arial, sans-serif">ABOUT</text></g></g><g class="related-pair"><g class="relationship" transform="translate(-107,-737) rotate(43.45959015169439)"><path class="relationship" d="M 43.91105088252147 1 L 281.49638345377167 1 L 281.49638345377167 4 L 289.49638345377167 0 L 281.49638345377167 -4 L 281.49638345377167 -1 L 43.91105088252147 -1 Z" fill="rgba(0, 0, 0, 0.298039)" stroke="rgb(51, 51, 51)" stroke-width="0px"/><text class="type" text-anchor="middle" baseline-shift="30%" alignment-baseline="alphabetic" x="162.70371716814657" y="0" font-size="14px" font-family="'Helvetica Neue', Helvetica, Arial, sans-serif">WITH</text></g></g></g><g class="layer nodes"><circle class="node node-id-0" r="31.357528281543367" fill="rgb(247, 247, 249)" stroke="rgba(0, 0, 0, 0.298039)" stroke-width="1px" cx="-336" cy="-518"/><circle class="node node-id-1" r="43.619236314440066" fill="rgb(247, 247, 249)" stroke="rgba(0, 0, 0, 0.298039)" stroke-width="1px" cx="-336" cy="-737"/><circle class="node node-id-2" r="36.64191868020457" fill="rgb(247, 247, 249)" stroke="rgba(0, 0, 0, 0.298039)" stroke-width="1px" cx="-107" cy="-943.3959350585938"/><circle class="node node-id-3" r="38.41105088252147" fill="rgb(247, 247, 249)" stroke="rgba(0, 0, 0, 0.298039)" stroke-width="1px" cx="-107" cy="-737"/><circle class="node node-id-4" r="23.39031355544964" fill="rgb(247, 247, 249)" stroke="rgba(0, 0, 0, 0.298039)" stroke-width="1px" cx="124.10406494140625" cy="-518"/><circle class="node node-id-5" r="35.3746701613055" fill="rgb(247, 247, 249)" stroke="rgba(0, 0, 0, 0.298039)" stroke-width="1px" cx="124.10406494140625" cy="-737"/><circle class="node node-id-6" r="37.64541818779943" fill="rgb(247, 247, 249)" stroke="rgba(0, 0, 0, 0.298039)" stroke-width="1px" cx="124.10406494140625" cy="-943.3959350585938"/><g class="caption"><text class="caption node" text-anchor="middle" alignment-baseline="central" x="-336" y="-518" font-size="14px" font-family="'Helvetica Neue', Helvetica, Arial, sans-serif">Product</text></g><g class="caption"><text class="caption node" text-anchor="middle" alignment-baseline="central" x="-336" y="-737" font-size="14px" font-family="'Helvetica Neue', Helvetica, Arial, sans-serif">SubProduct</text></g><g class="caption"><text class="caption node" text-anchor="middle" alignment-baseline="central" x="-107" y="-943.3959350585938" font-size="14px" font-family="'Helvetica Neue', Helvetica, Arial, sans-serif">Company</text></g><g class="caption"><text class="caption node" text-anchor="middle" alignment-baseline="central" x="-107" y="-737" font-size="14px" font-family="'Helvetica Neue', Helvetica, Arial, sans-serif">Complaint</text></g><g class="caption"><text class="caption node" text-anchor="middle" alignment-baseline="central" x="124.10406494140625" y="-518" font-size="14px" font-family="'Helvetica Neue', Helvetica, Arial, sans-serif">Issue</text></g><g class="caption"><text class="caption node" text-anchor="middle" alignment-baseline="central" x="124.10406494140625" y="-737" font-size="14px" font-family="'Helvetica Neue', Helvetica, Arial, sans-serif">SubIssue</text></g><g class="caption"><text class="caption node" text-anchor="middle" alignment-baseline="central" x="124.10406494140625" y="-943.3959350585938" font-size="14px" font-family="'Helvetica Neue', Helvetica, Arial, sans-serif">Response</text></g></g><g class="layer properties"><g class="speech-bubble relationship-speech-bubble" transform="translate(11.820967636924635,-843.1174096016346) "><path class="speech-bubble-outline" transform="scale(1,1) " d="M 0 0 L 16 12 L 117.12199783325195 12 A 4 4 0 0 1 121.12199783325195 16 L 121.12199783325195 44 A 4 4 0 0 1 117.12199783325195 48 L 16 48 A 4 4 0 0 1 12 44 L 12 16 Z" fill="rgb(255, 255, 255)" stroke="rgba(0, 0, 0, 0.498039)" stroke-width="1px"/><text class="speech-bubble-content property-key" x="83.1719970703125" y="23" alignment-baseline="central" text-anchor="end" font-size="14px" font-family="'Helvetica Neue', Helvetica, Arial, sans-serif" xml:space="preserve">{timely: </text><text class="speech-bubble-content property-key" x="83.1719970703125" y="37" alignment-baseline="central" text-anchor="end" font-size="14px" font-family="'Helvetica Neue', Helvetica, Arial, sans-serif" xml:space="preserve">{disputed: </text><text class="speech-bubble-content property-value" x="83.1719970703125" y="23" alignment-baseline="central" font-size="14px" font-family="'Helvetica Neue', Helvetica, Arial, sans-serif">true}</text><text class="speech-bubble-content property-value" x="83.1719970703125" y="37" alignment-baseline="central" font-size="14px" font-family="'Helvetica Neue', Helvetica, Arial, sans-serif">false}</text></g></g><g class="layer overlay"><circle class="node overlay" r="31.857528281543367" stroke="none" fill="rgba(255, 255, 255, 0)" cx="-336" cy="-518"/><circle class="node overlay" r="44.119236314440066" stroke="none" fill="rgba(255, 255, 255, 0)" cx="-336" cy="-737"/><circle class="node overlay" r="37.14191868020457" stroke="none" fill="rgba(255, 255, 255, 0)" cx="-107" cy="-943.3959350585938"/><circle class="node overlay" r="38.91105088252147" stroke="none" fill="rgba(255, 255, 255, 0)" cx="-107" cy="-737"/><circle class="node overlay" r="23.89031355544964" stroke="none" fill="rgba(255, 255, 255, 0)" cx="124.10406494140625" cy="-518"/><circle class="node overlay" r="35.8746701613055" stroke="none" fill="rgba(255, 255, 255, 0)" cx="124.10406494140625" cy="-737"/><circle class="node overlay" r="38.14541818779943" stroke="none" fill="rgba(255, 255, 255, 0)" cx="124.10406494140625" cy="-943.3959350585938"/><circle class="node ring" r="36.85752828154337" fill="none" stroke="rgba(255, 255, 255, 0)" stroke-width="10px" cx="-336" cy="-518"/><circle class="node ring" r="49.119236314440066" fill="none" stroke="rgba(255, 255, 255, 0)" stroke-width="10px" cx="-336" cy="-737"/><circle class="node ring" r="42.14191868020457" fill="none" stroke="rgba(255, 255, 255, 0)" stroke-width="10px" cx="-107" cy="-943.3959350585938"/><circle class="node ring" r="43.91105088252147" fill="none" stroke="rgba(255, 255, 255, 0)" stroke-width="10px" cx="-107" cy="-737"/><circle class="node ring" r="28.89031355544964" fill="none" stroke="rgba(255, 255, 255, 0)" stroke-width="10px" cx="124.10406494140625" cy="-518"/><circle class="node ring" r="40.8746701613055" fill="none" stroke="rgba(255, 255, 255, 0)" stroke-width="10px" cx="124.10406494140625" cy="-737"/><circle class="node ring" r="43.14541818779943" fill="none" stroke="rgba(255, 255, 255, 0)" stroke-width="10px" cx="124.10406494140625" cy="-943.3959350585938"/><path class="relationship overlay" fill="rgba(255, 255, 255, 0)" stroke="rgba(255, 255, 255, 0)" stroke-width="10px" transform="translate(-107,-737) rotate(180)" d="M 43.91105088252147 1 L 171.88076368555994 1 L 171.88076368555994 4 L 179.88076368555994 0 L 171.88076368555994 -4 L 171.88076368555994 -1 L 43.91105088252147 -1 Z"/><path class="relationship overlay" fill="rgba(255, 255, 255, 0)" stroke="rgba(255, 255, 255, 0)" stroke-width="10px" transform="translate(-336,-737) rotate(90)" d="M 49.119236314440066 1 L 174.14247171845665 1 L 174.14247171845665 4 L 182.14247171845665 0 L 174.14247171845665 -4 L 174.14247171845665 -1 L 49.119236314440066 -1 Z"/><path class="relationship overlay" fill="rgba(255, 255, 255, 0)" stroke="rgba(255, 255, 255, 0)" stroke-width="10px" transform="translate(-107,-737) rotate(-90)" d="M 43.91105088252147 1 L 156.25401637838917 1 L 156.25401637838917 4 L 164.25401637838917 0 L 156.25401637838917 -4 L 156.25401637838917 -1 L 43.91105088252147 -1 Z"/><path class="relationship overlay" fill="rgba(255, 255, 255, 0)" stroke="rgba(255, 255, 255, 0)" stroke-width="10px" transform="translate(-107,-737) rotate(0)" d="M 43.91105088252147 1 L 182.22939478010073 1 L 182.22939478010073 4 L 190.22939478010073 0 L 182.22939478010073 -4 L 182.22939478010073 -1 L 43.91105088252147 -1 Z"/><path class="relationship overlay" fill="rgba(255, 255, 255, 0)" stroke="rgba(255, 255, 255, 0)" stroke-width="10px" transform="translate(124.10406494140625,-737) rotate(90)" d="M 40.8746701613055 1 L 182.10968644455036 1 L 182.10968644455036 4 L 190.10968644455036 0 L 182.10968644455036 -4 L 182.10968644455036 -1 L 40.8746701613055 -1 Z"/><path class="relationship overlay" fill="rgba(255, 255, 255, 0)" stroke="rgba(255, 255, 255, 0)" stroke-width="10px" transform="translate(124.10406494140625,-943.3959350585938) rotate(138.23238705675146)" d="M 43.14541818779943 1 L 257.9411249064392 1 L 257.9411249064392 4 L 265.9411249064392 0 L 257.9411249064392 -4 L 257.9411249064392 -1 L 43.14541818779943 -1 Z"/><path class="relationship overlay" fill="rgba(255, 255, 255, 0)" stroke="rgba(255, 255, 255, 0)" stroke-width="10px" transform="translate(-107,-737) rotate(136.2787113070498)" d="M 43.91105088252147 1 L 272.0052180298525 1 L 272.0052180298525 4 L 280.0052180298525 0 L 272.0052180298525 -4 L 272.0052180298525 -1 L 43.91105088252147 -1 Z"/><path class="relationship overlay" fill="rgba(255, 255, 255, 0)" stroke="rgba(255, 255, 255, 0)" stroke-width="10px" transform="translate(-107,-737) rotate(43.45959015169439)" d="M 43.91105088252147 1 L 281.49638345377167 1 L 281.49638345377167 4 L 289.49638345377167 0 L 281.49638345377167 -4 L 281.49638345377167 -1 L 43.91105088252147 -1 Z"/></g></svg>